<svg width="18" height="32" viewBox="0 0 18 32" fill="none" xmlns="http://www.w3.org/2000/svg">
<rect width="1400" height="993" transform="translate(-430 -293)" fill="white"/>
<path fill-rule="evenodd" clip-rule="evenodd" d="M13.4161 4.94444L13.2993 8H14.7007L14.5839 4.94444L17.2993 6.58333L18 5.41667L15.1387 4L18 2.58333L17.2993 1.41667L14.5839 3.05556L14.7007 0H13.2993L13.4161 3.05556L10.7007 1.41667L10 2.58333L12.8613 4L10 5.41667L10.7007 6.58333L13.4161 4.94444ZM3.63475e-06 7.33206L9.28865 15L2.9644e-06 15L2.78955e-06 17L9.28863 17L0 24.668V27L13.5547 16L1.1468e-05 5L3.63475e-06 7.33206Z" fill="#65676C"/>
</svg>
