<!DOCTYPE svg PUBLIC "-//W3C//DTD SVG 1.1//EN" "http://www.w3.org/Graphics/SVG/1.1/DTD/svg11.dtd">
<!-- Uploaded to: SVG Repo, www.svgrepo.com, Transformed by: SVG Repo Mixer Tools -->
<svg fill="#808080" width="800px" height="800px" viewBox="0 0 24 24" xmlns="http://www.w3.org/2000/svg" stroke="#808080">
<g id="SVGRepo_bgCarrier" stroke-width="0"/>
<g id="SVGRepo_tracerCarrier" stroke-linecap="round" stroke-linejoin="round"/>
<g id="SVGRepo_iconCarrier">
<path d="M21,11H17.5V3a1,1,0,0,0-1-1h-9a1,1,0,0,0-1,1v8H3a1,1,0,0,0-1,1v9a1,1,0,0,0,1,1H21a1,1,0,0,0,1-1V12A1,1,0,0,0,21,11ZM11,20H4V13h7ZM8.5,11V4h7v7ZM20,20H13V13h7Z"/>
</g>
</svg>