<svg viewBox="0 0 24 24" id="package" xmlns="http://www.w3.org/2000/svg" class="icon multi-color" fill="#000000"><g id="SVGRepo_bgCarrier" stroke-width="0"></g><g id="SVGRepo_tracerCarrier" stroke-linecap="round" stroke-linejoin="round"></g><g id="SVGRepo_iconCarrier"><title style="stroke-width: 2;">package</title><path id="tertiary-fill" d="M3,8,7.71,3.29A1,1,0,0,1,8.41,3h7.18a1,1,0,0,1,.7.29L21,8Z" style="fill: #b7b7b7; stroke-width: 2;"></path><polygon id="secondary-fill" points="15 15 12 14 9 15 9 8 15 8 15 15" style="fill: #6b6b6b; stroke-width: 2;"></polygon><path id="primary-stroke" d="M3,8,7.71,3.29A1,1,0,0,1,8.41,3h7.18a1,1,0,0,1,.7.29L21,8ZM3,8V20a1,1,0,0,0,1,1H20a1,1,0,0,0,1-1V8m-6,7-3-1L9,15V8h6Z" style="fill: none; stroke: #606770; stroke-linecap: round; stroke-linejoin: round; stroke-width: 2;"></path></g></svg>
