<svg width="24" height="19" viewBox="0 0 24 19" fill="none" xmlns="http://www.w3.org/2000/svg">
<g clip-path="url(#clip0_700_3249)">
<path d="M20.317 1.6556C18.7873 0.953722 17.147 0.436607 15.4319 0.140433C15.4007 0.134717 15.3695 0.149002 15.3534 0.177572C15.1424 0.552787 14.9087 1.04229 14.7451 1.42703C12.9004 1.15086 11.0652 1.15086 9.25832 1.42703C9.09465 1.03373 8.85248 0.552787 8.64057 0.177572C8.62448 0.149955 8.59328 0.13567 8.56205 0.140433C6.84791 0.43566 5.20756 0.952775 3.67694 1.6556C3.66368 1.66132 3.65233 1.67085 3.64479 1.68322C0.533392 6.33158 -0.31895 10.8657 0.0991801 15.3436C0.101072 15.3655 0.11337 15.3864 0.130398 15.3998C2.18321 16.9073 4.17171 17.8225 6.12328 18.4291C6.15451 18.4387 6.18761 18.4272 6.20748 18.4015C6.66913 17.7711 7.08064 17.1064 7.43348 16.4073C7.4543 16.3664 7.43442 16.3178 7.39186 16.3016C6.73913 16.054 6.1176 15.7521 5.51973 15.4093C5.47244 15.3817 5.46865 15.314 5.51216 15.2817C5.63797 15.1874 5.76382 15.0893 5.88395 14.9902C5.90569 14.9722 5.93598 14.9683 5.96153 14.9798C9.88928 16.773 14.1415 16.773 18.023 14.9798C18.0485 14.9674 18.0788 14.9712 18.1015 14.9893C18.2216 15.0883 18.3475 15.1874 18.4742 15.2817C18.5177 15.314 18.5149 15.3817 18.4676 15.4093C17.8697 15.7588 17.2482 16.054 16.5945 16.3007C16.552 16.3169 16.533 16.3664 16.5538 16.4073C16.9143 17.1054 17.3258 17.7701 17.7789 18.4006C17.7978 18.4272 17.8319 18.4387 17.8631 18.4291C19.8241 17.8225 21.8126 16.9073 23.8654 15.3998C23.8834 15.3864 23.8948 15.3664 23.8967 15.3445C24.3971 10.1676 23.0585 5.67067 20.3482 1.68417C20.3416 1.67085 20.3303 1.66132 20.317 1.6556ZM8.02002 12.617C6.8375 12.617 5.86313 11.5314 5.86313 10.1981C5.86313 8.8648 6.8186 7.77915 8.02002 7.77915C9.23087 7.77915 10.1958 8.87433 10.1769 10.1981C10.1769 11.5314 9.22141 12.617 8.02002 12.617ZM15.9947 12.617C14.8123 12.617 13.8379 11.5314 13.8379 10.1981C13.8379 8.8648 14.7933 7.77915 15.9947 7.77915C17.2056 7.77915 18.1705 8.87433 18.1516 10.1981C18.1516 11.5314 17.2056 12.617 15.9947 12.617Z" fill="#5865F2"/>
</g>
<defs>
<clipPath id="clip0_700_3249">
<rect width="24" height="18.5915" fill="white"/>
</clipPath>
</defs>
</svg>
