<svg width="60" height="47" viewBox="0 0 60 47" fill="none" xmlns="http://www.w3.org/2000/svg">
<path d="M50.7925 4.07131C46.9683 2.3166 42.8675 1.02381 38.5797 0.283379C38.5017 0.269089 38.4237 0.304801 38.3834 0.376227C37.856 1.31426 37.2718 2.53801 36.8627 3.49987C32.251 2.80945 27.663 2.80945 23.1458 3.49987C22.7366 2.51663 22.1312 1.31426 21.6014 0.376227C21.5612 0.307184 21.4832 0.271472 21.4051 0.283379C17.1198 1.02145 13.0189 2.31424 9.19234 4.07131C9.15921 4.08559 9.13082 4.10942 9.11197 4.14035C1.33348 15.7613 -0.797376 27.0965 0.24795 38.2913C0.25268 38.346 0.283425 38.3984 0.325995 38.4317C5.45802 42.2005 10.4293 44.4886 15.3082 46.0051C15.3863 46.029 15.469 46.0004 15.5187 45.9361C16.6728 44.36 17.7016 42.6982 18.5837 40.9506C18.6357 40.8483 18.5861 40.7268 18.4797 40.6864C16.8478 40.0673 15.294 39.3126 13.7993 38.4555C13.6811 38.3865 13.6716 38.2174 13.7804 38.1364C14.0949 37.9007 14.4095 37.6555 14.7099 37.4079C14.7642 37.3627 14.8399 37.3531 14.9038 37.3817C24.7232 41.8649 35.3539 41.8649 45.0574 37.3817C45.1213 37.3508 45.197 37.3603 45.2537 37.4055C45.5541 37.6531 45.8686 37.9007 46.1855 38.1364C46.2943 38.2174 46.2872 38.3865 46.169 38.4555C44.6743 39.3293 43.1205 40.0673 41.4863 40.684C41.3799 40.7245 41.3326 40.8483 41.3846 40.9506C42.2856 42.6958 43.3144 44.3576 44.4472 45.9337C44.4946 46.0004 44.5797 46.029 44.6577 46.0051C49.5603 44.4886 54.5315 42.2005 59.6636 38.4317C59.7085 38.3984 59.7369 38.3484 59.7417 38.2936C60.9927 25.3513 57.6462 14.109 50.8705 4.14271C50.854 4.10942 50.8257 4.08559 50.7925 4.07131ZM20.0501 31.4748C17.0937 31.4748 14.6578 28.7607 14.6578 25.4275C14.6578 22.0943 17.0465 19.3802 20.0501 19.3802C23.0772 19.3802 25.4895 22.1181 25.4422 25.4275C25.4422 28.7607 23.0535 31.4748 20.0501 31.4748ZM39.9869 31.4748C37.0306 31.4748 34.5947 28.7607 34.5947 25.4275C34.5947 22.0943 36.9833 19.3802 39.9869 19.3802C43.0141 19.3802 45.4263 22.1181 45.3791 25.4275C45.3791 28.7607 43.0141 31.4748 39.9869 31.4748Z" fill="#5865F2"/>
</svg>
