<svg width="64px" height="64px" viewBox="0 0 24 24" id="dashboard" xmlns="http://www.w3.org/2000/svg" class="icon multi-color" fill="#000000"><g id="SVGRepo_bgCarrier" stroke-width="0"></g><g id="SVGRepo_tracerCarrier" stroke-linecap="round" stroke-linejoin="round"></g><g id="SVGRepo_iconCarrier"><path id="secondary-fill" d="M9,12H4a1,1,0,0,1-1-1V6h7v5A1,1,0,0,1,9,12Zm12,8V15H14v5a1,1,0,0,0,1,1h5A1,1,0,0,0,21,20Z" style="fill: #8c8c8c; stroke-width: 2;"></path><path id="tertiary-fill" d="M9,21H4a1,1,0,0,1-1-1V19h7v1A1,1,0,0,1,9,21ZM21,7V6H14V7a1,1,0,0,0,1,1h5A1,1,0,0,0,21,7Z" style="fill: #b7b7b7; stroke-width: 2;"></path><path id="primary-stroke" d="M9,12H4a1,1,0,0,1-1-1V4A1,1,0,0,1,4,3H9a1,1,0,0,1,1,1v7A1,1,0,0,1,9,12ZM21,7V4a1,1,0,0,0-1-1H15a1,1,0,0,0-1,1V7a1,1,0,0,0,1,1h5A1,1,0,0,0,21,7ZM10,20V17a1,1,0,0,0-1-1H4a1,1,0,0,0-1,1v3a1,1,0,0,0,1,1H9A1,1,0,0,0,10,20Zm11,0V13a1,1,0,0,0-1-1H15a1,1,0,0,0-1,1v7a1,1,0,0,0,1,1h5A1,1,0,0,0,21,20Z" style="fill: none; stroke: #606770; stroke-linecap: round; stroke-linejoin: round; stroke-width: 2;"></path></g></svg>
