<svg width="60" height="54" viewBox="0 0 60 54" fill="none" xmlns="http://www.w3.org/2000/svg">
<path d="M59.3257 20.3076H42.1828C41.8882 20.3076 41.6471 20.5487 41.6471 20.8434V24.0576C41.6471 24.3523 41.8882 24.5934 42.1828 24.5934H59.3257C59.6203 24.5934 59.8614 24.3523 59.8614 24.0576V20.8434C59.8614 20.5487 59.6203 20.3076 59.3257 20.3076ZM50.3524 29.4148H42.1828C41.8882 29.4148 41.6471 29.6559 41.6471 29.9505V33.1648C41.6471 33.4594 41.8882 33.7005 42.1828 33.7005H50.3524C50.6471 33.7005 50.8882 33.4594 50.8882 33.1648V29.9505C50.8882 29.6559 50.6471 29.4148 50.3524 29.4148ZM28.0065 14.3143H25.1069C24.6917 14.3143 24.3569 14.6492 24.3569 15.0643V31.6715C24.3569 31.9126 24.4707 32.1335 24.6649 32.2742L34.6359 39.5465C34.9707 39.7876 35.4395 39.7206 35.6806 39.3858L37.4016 37.0353V37.0286C37.6426 36.6938 37.569 36.2251 37.2341 35.984L28.7498 29.8501V15.0643C28.7565 14.6492 28.4149 14.3143 28.0065 14.3143Z" fill="#3578E5"/>
<path d="M49.9396 37.8289H46.069C45.694 37.8289 45.3391 38.0231 45.1382 38.3445C44.2865 39.6946 43.287 40.9456 42.1583 42.0744C40.2149 44.0242 37.911 45.5775 35.3748 46.6481C32.7431 47.7597 29.9507 48.3222 27.0712 48.3222C24.1851 48.3222 21.3927 47.7597 18.7677 46.6481C16.2297 45.5766 13.9462 44.0364 11.9842 42.0744C10.0221 40.1123 8.48196 37.8289 7.41053 35.2909C6.29892 32.6659 5.73642 29.8735 5.73642 26.9873C5.73642 24.1012 6.29892 21.3155 7.41053 18.6838C8.48196 16.1458 10.0221 13.8623 11.9842 11.9003C13.9462 9.93824 16.2297 8.39806 18.7677 7.32663C21.3927 6.21502 24.1918 5.65252 27.0712 5.65252C29.9574 5.65252 32.7498 6.21502 35.3748 7.32663C37.9128 8.39806 40.1962 9.93824 42.1583 11.9003C43.287 13.0291 44.2865 14.2801 45.1382 15.6302C45.3391 15.9516 45.694 16.1458 46.069 16.1458H49.9396C50.4016 16.1458 50.6962 15.6637 50.4887 15.2552C46.1226 6.56993 37.2699 0.924842 27.386 0.811003C12.915 0.630199 0.894904 12.4762 0.868118 26.9338C0.841333 41.4182 12.5802 53.1704 27.0646 53.1704C37.0757 53.1704 46.0757 47.5052 50.4887 38.7195C50.5357 38.6258 50.558 38.5216 50.5535 38.4168C50.5489 38.3121 50.5176 38.2102 50.4626 38.121C50.4076 38.0317 50.3306 37.958 50.2391 37.9069C50.1475 37.8558 50.0444 37.8289 49.9396 37.8289Z" fill="#3578E5"/>
</svg>
