<svg width="56" height="56" viewBox="0 0 56 56" fill="none" xmlns="http://www.w3.org/2000/svg">
<path d="M55.1645 3.68837L52.3252 0.849086C52.2181 0.741944 52.0842 0.695068 51.9435 0.695068C51.8029 0.695068 51.669 0.74864 51.5618 0.849086L46.4659 5.94507C44.2505 4.44408 41.6351 3.64382 38.9592 3.64819C35.5306 3.64819 32.102 4.954 29.4837 7.5723L22.6601 14.396C22.5604 14.4966 22.5044 14.6326 22.5044 14.7743C22.5044 14.916 22.5604 15.052 22.6601 15.1527L40.8542 33.3469C40.9614 33.454 41.0953 33.5009 41.2359 33.5009C41.3699 33.5009 41.5105 33.4473 41.6176 33.3469L48.4413 26.5232C53.0551 21.9027 53.5976 14.7576 50.0685 9.54775L55.1645 4.45177C55.3721 4.23748 55.3721 3.89596 55.1645 3.68837ZM45.2136 23.3022L41.2359 27.2799L28.727 14.771L32.7047 10.7933C34.3721 9.12587 36.5953 8.20177 38.9592 8.20177C41.323 8.20177 43.5395 9.11917 45.2136 10.7933C46.881 12.4607 47.8051 14.6839 47.8051 17.0477C47.8051 19.4116 46.881 21.6281 45.2136 23.3022ZM32.477 30.3335C32.3763 30.2338 32.2404 30.1778 32.0987 30.1778C31.957 30.1778 31.821 30.2338 31.7203 30.3335L27.2605 34.7933L21.2136 28.7464L25.6801 24.2799C25.8877 24.0723 25.8877 23.7308 25.6801 23.5232L23.2426 21.0857C23.142 20.986 23.006 20.9301 22.8643 20.9301C22.7226 20.9301 22.5866 20.986 22.4859 21.0857L18.0194 25.5522L15.14 22.6727C15.09 22.6227 15.0304 22.5833 14.9648 22.5568C14.8992 22.5304 14.829 22.5174 14.7583 22.5187C14.6243 22.5187 14.4837 22.5723 14.3766 22.6727L7.5596 29.4964C2.94576 34.1169 2.40335 41.262 5.93237 46.4719L0.836389 51.5678C0.736691 51.6685 0.680763 51.8045 0.680763 51.9462C0.680763 52.0879 0.736691 52.2239 0.836389 52.3245L3.67567 55.1638C3.78282 55.271 3.91675 55.3178 4.05737 55.3178C4.198 55.3178 4.33192 55.2643 4.43907 55.1638L9.53505 50.0678C11.7917 51.6013 14.4167 52.3647 17.0417 52.3647C20.4703 52.3647 23.8989 51.0589 26.5172 48.4406L33.3409 41.6169C33.5484 41.4094 33.5484 41.0678 33.3409 40.8603L30.4614 37.9808L34.9279 33.5143C35.1355 33.3067 35.1355 32.9652 34.9279 32.7576L32.477 30.3335ZM23.2895 45.2263C22.4699 46.0501 21.4952 46.7033 20.4217 47.1481C19.3481 47.5929 18.1971 47.8205 17.035 47.8178C14.6712 47.8178 12.4547 46.9004 10.7806 45.2263C9.9568 44.4067 9.30363 43.432 8.85881 42.3585C8.414 41.2849 8.18636 40.1339 8.18907 38.9719C8.18907 36.608 9.10648 34.3915 10.7806 32.7174L14.7583 28.7397L27.2672 41.2486L23.2895 45.2263Z" fill="#3578E5"/>
</svg>
