<svg width="23" height="20" viewBox="0 0 23 20" fill="none" xmlns="http://www.w3.org/2000/svg">
<g clip-path="url(#clip0_1286_12930)">
<path d="M11.2397 12.0036C12.3462 12.0036 13.2432 11.1066 13.2432 10C13.2432 8.89349 12.3462 7.99646 11.2397 7.99646C10.1331 7.99646 9.23608 8.89349 9.23608 10C9.23608 11.1066 10.1331 12.0036 11.2397 12.0036Z" fill="#61DAFB"/>
<path d="M11.2396 14.1049C17.1772 14.1049 21.9905 12.2671 21.9905 10C21.9905 7.73296 17.1772 5.89514 11.2396 5.89514C5.30209 5.89514 0.48877 7.73296 0.48877 10C0.48877 12.2671 5.30209 14.1049 11.2396 14.1049Z" stroke="#61DAFB"/>
<path d="M7.68477 12.0525C10.6535 17.1945 14.6518 20.4441 16.6151 19.3106C18.5785 18.177 17.7634 13.0897 14.7946 7.9476C11.8259 2.80555 7.8276 -0.444008 5.86426 0.689522C3.90093 1.82305 4.716 6.91042 7.68477 12.0525Z" stroke="#61DAFB"/>
<path d="M7.68464 7.94759C4.71587 13.0896 3.90081 18.177 5.86414 19.3105C7.82747 20.4441 11.8257 17.1945 14.7945 12.0525C17.7633 6.9104 18.5783 1.82304 16.615 0.689507C14.6517 -0.444023 10.6534 2.80553 7.68464 7.94759Z" stroke="#61DAFB"/>
</g>
<defs>
<clipPath id="clip0_1286_12930">
<rect width="22.4791" height="20" fill="white"/>
</clipPath>
</defs>
</svg>
