<svg width="20" height="20" viewBox="0 0 20 20" fill="none" xmlns="http://www.w3.org/2000/svg">
<path d="M12.0833 2.5H6.55992C6.15867 2.5 5.83325 2.82542 5.83325 3.22667V6.25125H12.0833V2.5Z" fill="#169154"/>
<path d="M5.83325 13.7725V16.7733C5.83325 17.1745 6.15867 17.5 6.5595 17.5H12.0833V13.7725H5.83325Z" fill="#18482A"/>
<path d="M5.83325 6.25122H12.0833V10.0021H5.83325V6.25122Z" fill="#0C8045"/>
<path d="M5.83325 10.0021H12.0833V13.7729H5.83325V10.0021Z" fill="#17472A"/>
<path d="M17.6066 2.5H12.0833V6.25125H18.3333V3.22667C18.3333 2.82542 18.0078 2.5 17.6066 2.5Z" fill="#29C27F"/>
<path d="M12.0833 13.7725V17.5H17.607C18.0078 17.5 18.3333 17.1745 18.3333 16.7737V13.7729L12.0833 13.7725Z" fill="#27663F"/>
<path d="M12.0833 6.25122H18.3333V10.0021H12.0833V6.25122Z" fill="#19AC65"/>
<path d="M12.0833 10.0021H18.3333V13.7729H12.0833V10.0021Z" fill="#129652"/>
<path d="M9.29966 14.1667H2.36716C1.9805 14.1667 1.66675 13.853 1.66675 13.4663V6.53379C1.66675 6.14712 1.9805 5.83337 2.36716 5.83337H9.29966C9.68633 5.83337 10.0001 6.14712 10.0001 6.53379V13.4663C10.0001 13.853 9.68633 14.1667 9.29966 14.1667Z" fill="#0C7238"/>
<path d="M4.08632 7.91663H5.08049L5.88715 9.48079L6.73965 7.91663H7.6684L6.38882 9.99996L7.69757 12.0833H6.71799L5.83882 10.4458L4.9634 12.0833H3.96924L5.29965 9.99246L4.08632 7.91663Z" fill="white"/>
</svg>
