<svg width="20" height="20" viewBox="0 0 20 20" fill="none" xmlns="http://www.w3.org/2000/svg">
<path d="M16.25 6.66671V17.0834C16.25 17.5438 15.8771 17.9167 15.4167 17.9167H4.58333C4.12292 17.9167 3.75 17.5438 3.75 17.0834V2.91671C3.75 2.45629 4.12292 2.08337 4.58333 2.08337H11.6667L16.25 6.66671Z" fill="url(#paint0_linear_1286_13153)"/>
<path d="M11.6667 2.08337V5.83337C11.6667 6.29379 12.0397 6.66671 12.5001 6.66671H16.2501L11.6667 2.08337Z" fill="#61E3A7"/>
<path d="M16.2501 6.66669H12.5001C12.303 6.66669 12.118 6.59669 11.9763 6.48169L16.2501 11.25V6.66669Z" fill="#107C42"/>
<path d="M13.3333 9.58337H6.66667C6.43625 9.58337 6.25 9.77004 6.25 10V15C6.25 15.23 6.43625 15.4167 6.66667 15.4167H13.3333C13.5637 15.4167 13.75 15.23 13.75 15V10C13.75 9.77004 13.5637 9.58337 13.3333 9.58337ZM7.08333 12.0834H8.75V12.9167H7.08333V12.0834ZM9.58333 12.0834H12.9167V12.9167H9.58333V12.0834ZM12.9167 11.25H9.58333V10.4167H12.9167V11.25ZM8.75 10.4167V11.25H7.08333V10.4167H8.75ZM7.08333 13.75H8.75V14.5834H7.08333V13.75ZM9.58333 14.5834V13.75H12.9167V14.5834H9.58333Z" fill="white"/>
<path opacity="0.05" d="M13.3333 9.37496C13.6778 9.37496 13.9583 9.65538 13.9583 9.99996V15C13.9583 15.3445 13.6778 15.625 13.3333 15.625H6.66659C6.322 15.625 6.04159 15.3445 6.04159 15V9.99996C6.04159 9.65538 6.322 9.37496 6.66659 9.37496H13.3333ZM13.3333 9.16663H6.66659C6.207 9.16663 5.83325 9.54038 5.83325 9.99996V15C5.83325 15.4595 6.207 15.8333 6.66659 15.8333H13.3333C13.7928 15.8333 14.1666 15.4595 14.1666 15V9.99996C14.1666 9.54038 13.7928 9.16663 13.3333 9.16663Z" fill="black"/>
<path opacity="0.07" d="M13.3334 9.58333C13.5638 9.58333 13.7501 9.77 13.7501 10V15C13.7501 15.23 13.5638 15.4167 13.3334 15.4167H6.66675C6.43633 15.4167 6.25008 15.23 6.25008 15V10C6.25008 9.77 6.43633 9.58333 6.66675 9.58333H13.3334ZM13.3334 9.375H6.66675C6.32216 9.375 6.04175 9.65542 6.04175 10V15C6.04175 15.3446 6.32216 15.625 6.66675 15.625H13.3334C13.678 15.625 13.9584 15.3446 13.9584 15V10C13.9584 9.65542 13.678 9.375 13.3334 9.375Z" fill="black"/>
<defs>
<linearGradient id="paint0_linear_1286_13153" x1="10" y1="2.08337" x2="10" y2="17.9167" gradientUnits="userSpaceOnUse">
<stop stop-color="#21AD64"/>
<stop offset="1" stop-color="#088242"/>
</linearGradient>
</defs>
</svg>
