<?xml version="1.0" encoding="utf-8"?><!-- Uploaded to: SVG Repo, www.svgrepo.com, Generator: SVG Repo Mixer Tools -->
<svg version="1.1" id="Uploaded to svgrepo.com" xmlns="http://www.w3.org/2000/svg" xmlns:xlink="http://www.w3.org/1999/xlink" 
	 width="800px" height="800px" viewBox="0 0 32 32" xml:space="preserve">
<style type="text/css">
	.sharpcorners_een{fill:#111918;}
</style>
<path class="sharpcorners_een" d="M2,4v24h28V4H2z M26,16h-1.95L20,19.24V20h-2v-0.662l-4-1.6V18h-1.95L8,21.24V22H6v-2h1.95
	L12,16.76V16h2v0.662l4,1.6V18h1.95L24,14.76V14h2V16z M26,12h-2v-0.262l-4,1.6V14h-2v-0.662l-4-1.6V12h-2v-0.266l-4,1.57V14H6v-2h2
	v0.266l4-1.57V10h2v0.662l4,1.6V12h2v0.266l4-1.57V10h2V12z"/>
</svg>