<svg width="61" height="67" viewBox="0 0 61 67" fill="none" xmlns="http://www.w3.org/2000/svg">
<path d="M54.5448 19.4042C54.5448 19.4042 57.9805 15.8822 56.8818 11.9586C53.0643 16.2739 48.8768 14.4581 52.9266 10.4432C54.2876 9.09548 56.3141 8.95772 58.1797 7.49382C59.7946 6.22743 61.4776 1.90876 59.8162 -0.0065918C56.6892 7.12204 53.9058 3.30461 52.0818 3.60835C48.8585 4.16104 47.7664 9.08552 43.4743 9.36436C41.7415 9.47225 38.5498 6.43324 41.7216 3.53532C38.8486 3.2432 36.5332 5.36104 34.4187 7.23656H34.427C32.1133 9.42743 30.027 11.1801 27.549 8.75855C27.3364 8.5269 27.1761 8.25234 27.0787 7.95342C26.9814 7.65449 26.9493 7.33816 26.9847 7.02577H26.9714C27.1506 6.00171 28.0502 4.70212 30.6593 3.34445C25.212 3.69465 23.9324 6.79009 23.0826 7.72619C16.115 9.45688 10.0081 13.6483 5.88788 19.5276C1.76766 25.4069 -0.0880057 32.5776 0.663042 39.7175C1.41409 46.8574 4.72121 53.4851 9.97459 58.3783C15.228 63.2716 22.0734 66.1006 29.2486 66.3436L24.0286 49.4639L17.5705 51.4556C16.9066 51.6581 16.1681 51.142 15.9108 50.2938L10.4718 32.7005C10.2129 31.859 10.5349 31.0108 11.1938 30.8067L17.6502 28.815L16.4535 24.9444C16.3773 24.6962 16.4026 24.4278 16.524 24.1982C16.6453 23.9686 16.8528 23.7964 17.1008 23.7195L24.9531 21.2913C25.2016 21.215 25.4702 21.2403 25.7001 21.3617C25.93 21.483 26.1024 21.6904 26.1797 21.9386L27.3697 25.8208L31.8278 24.4432L31.8378 24.4764L43.2901 20.9727C43.3897 20.9428 43.4931 20.9277 43.5971 20.9278C43.7027 20.928 43.8078 20.943 43.9091 20.9727C44.1452 21.0529 44.3536 21.1987 44.5099 21.393C44.6663 21.5872 44.7642 21.822 44.7921 22.0698C44.8216 22.3119 44.7767 22.5573 44.6634 22.7734C44.5502 22.9895 44.374 23.1661 44.1581 23.2797C44.1116 23.3013 44.0618 23.3179 44.0137 23.3361L38.9581 24.8814L38.7822 24.9544C38.7473 24.9743 38.7108 24.9926 38.6776 25.0142C38.5011 25.1412 38.3619 25.3132 38.2743 25.5123C38.1868 25.7113 38.1541 25.9302 38.1797 26.1461C38.2088 26.4212 38.3255 26.6796 38.5125 26.8834C38.6996 27.0872 38.9471 27.2255 39.2187 27.2781C39.3222 27.293 39.4272 27.293 39.5307 27.2781C39.5822 27.2698 39.632 27.2548 39.6818 27.2432L52.183 23.4407C52.2823 23.4095 52.3859 23.3938 52.4901 23.3942C52.5953 23.394 52.6999 23.4096 52.8004 23.4407C53.0371 23.5202 53.2462 23.6657 53.4029 23.8601C53.5597 24.0545 53.6576 24.2896 53.6851 24.5378C53.7143 24.78 53.6693 25.0253 53.5561 25.2413C53.4429 25.4573 53.2668 25.6339 53.051 25.7478C53.0046 25.7693 52.9548 25.7843 52.905 25.8025L37.856 30.3818L37.6801 30.4565C37.6452 30.4747 37.6104 30.493 37.5772 30.5146C37.4005 30.6418 37.261 30.814 37.1735 31.0134C37.0859 31.2128 37.0534 31.432 37.0793 31.6482C37.1084 31.9228 37.2248 32.1809 37.4116 32.3843C37.5983 32.5878 37.8455 32.726 38.1166 32.7785C38.2206 32.7934 38.3263 32.7934 38.4303 32.7785C38.4818 32.7785 38.5315 32.7552 38.5813 32.7453L40.817 32.0648C40.9166 32.0344 41.02 32.0187 41.1241 32.0183C41.2298 32.018 41.335 32.0337 41.4361 32.0648C41.6727 32.1442 41.8816 32.2897 42.0381 32.4841C42.1946 32.6786 42.2921 32.9138 42.3191 33.1619C42.3488 33.4037 42.3042 33.6488 42.1912 33.8646C42.0783 34.0804 41.9023 34.2568 41.6867 34.3702C41.6386 34.3934 41.5888 34.4083 41.5407 34.4266L36.0237 36.1013C35.539 36.249 36.1116 37.9038 36.5365 37.7743L50.3291 33.5785C50.5311 33.5188 50.7461 33.5188 50.9481 33.5785C51.1844 33.6584 51.393 33.8041 51.5494 33.9984C51.7058 34.1927 51.8036 34.4276 51.8311 34.6756C51.8603 34.9177 51.8153 35.163 51.7021 35.3791C51.5889 35.5951 51.4128 35.7717 51.1971 35.8855C51.1506 35.9071 51.1008 35.922 51.0527 35.942L41.7481 38.7718L41.5722 38.8465C41.5374 38.8648 41.5008 38.883 41.4676 38.9046C41.2912 39.0321 41.152 39.2044 41.0644 39.4037C40.9769 39.603 40.9442 39.822 40.9697 40.0382C40.9989 40.3131 41.1156 40.5713 41.3027 40.7748C41.4898 40.9783 41.7373 41.1163 42.0087 41.1685C42.1122 41.1834 42.2173 41.1834 42.3208 41.1685C42.3716 41.16 42.422 41.1489 42.4718 41.1353L45.217 40.3054C45.3169 40.2741 45.4211 40.2585 45.5257 40.259C45.6308 40.259 45.7353 40.2741 45.8361 40.3038C46.0727 40.3839 46.2816 40.5298 46.4383 40.7244C46.595 40.919 46.693 41.1543 46.7208 41.4025C46.7501 41.6445 46.7051 41.8896 46.5919 42.1054C46.4786 42.3212 46.3025 42.4975 46.0867 42.6108C46.0386 42.6341 45.9888 42.649 45.9407 42.6673L38.1996 45.044L38.2112 45.0822L33.7531 46.4581L39.4593 64.9129C43.9062 63.4664 47.9497 60.9924 51.2618 57.6914C54.5739 54.3903 57.0616 50.3552 58.5229 45.9132C59.9843 41.4712 60.3783 36.7473 59.673 32.1246C58.9677 27.5019 57.183 23.1104 54.4635 19.3063C54.49 19.3411 54.5183 19.3743 54.5448 19.4042ZM51.6021 21.0158C51.5549 21.0371 51.5067 21.0559 51.4577 21.0722L48.6743 21.9187C48.6245 21.9303 48.5747 21.9453 48.5232 21.9536C48.4198 21.9685 48.3147 21.9685 48.2112 21.9536C47.9396 21.9011 47.6921 21.7627 47.505 21.5589C47.318 21.3552 47.2013 21.0967 47.1722 20.8216C47.1466 20.6057 47.1793 20.3868 47.2669 20.1878C47.3544 19.9887 47.4937 19.8167 47.6701 19.6897C47.7133 19.6598 47.7614 19.6382 47.8062 19.6117L47.9506 19.5569L50.734 18.7088C50.8336 18.6789 50.9371 18.6638 51.0411 18.6639C51.1467 18.6641 51.2518 18.6791 51.3531 18.7088C51.5894 18.7892 51.798 18.9352 51.9543 19.1298C52.1107 19.3244 52.2084 19.5594 52.2361 19.8075C52.2654 20.0495 52.2205 20.2946 52.1072 20.5104C51.994 20.7262 51.8178 20.9025 51.6021 21.0158ZM48.1465 32.4C48.0993 32.4213 48.0511 32.4401 48.0021 32.4565L45.2203 33.3029C45.1689 33.3146 45.1191 33.3295 45.0676 33.3378C44.9642 33.3527 44.8591 33.3527 44.7556 33.3378C44.484 33.2853 44.2365 33.147 44.0494 32.9432C43.8624 32.7394 43.7457 32.4809 43.7166 32.2059C43.6907 31.9899 43.7232 31.7709 43.8108 31.5718C43.8984 31.3727 44.0378 31.2007 44.2145 31.0739C44.2577 31.044 44.3042 31.0225 44.349 30.9959L44.495 30.9395L47.2867 30.093C47.3863 30.0631 47.4898 30.0481 47.5938 30.0482C47.6994 30.0483 47.8044 30.0634 47.9058 30.093C48.1402 30.1743 48.3468 30.3203 48.5016 30.5142C48.6564 30.7081 48.7531 30.9418 48.7805 31.1884C48.8105 31.4309 48.7659 31.6767 48.6526 31.8932C48.5394 32.1097 48.3628 32.2865 48.1465 32.4ZM51.2452 41.0307C51.1981 41.052 51.1499 41.0708 51.1008 41.0872L49.5971 41.5453C49.5457 41.5569 49.4959 41.5718 49.4444 41.5801C49.3409 41.5951 49.2358 41.5951 49.1324 41.5801C48.8608 41.5276 48.6132 41.3893 48.4262 41.1855C48.2391 40.9817 48.1225 40.7233 48.0934 40.4482C48.0674 40.2322 48.1 40.0132 48.1875 39.8141C48.2751 39.615 48.4146 39.4431 48.5913 39.3162C48.6344 39.2864 48.6809 39.2648 48.7257 39.2382L48.8718 39.1818L50.3755 38.7254C50.4749 38.6942 50.5784 38.6785 50.6826 38.6789C50.7882 38.679 50.8932 38.6941 50.9946 38.7237C51.231 38.8039 51.4397 38.9499 51.5961 39.1445C51.7525 39.3391 51.8501 39.5743 51.8776 39.8224C51.9084 40.065 51.8643 40.3112 51.7513 40.528C51.6383 40.7449 51.4617 40.922 51.2452 41.0357V41.0307ZM54.6361 29.4042C54.6653 29.6463 54.6203 29.8917 54.5071 30.1077C54.3939 30.3237 54.2178 30.5003 54.0021 30.6142C53.9556 30.6357 53.9058 30.6507 53.8577 30.6689L52.354 31.127C52.3025 31.1386 52.2527 31.1536 52.2013 31.1619C52.0978 31.1768 51.9927 31.1768 51.8892 31.1619C51.6176 31.1094 51.3701 30.971 51.183 30.7672C50.996 30.5635 50.8793 30.305 50.8502 30.0299C50.8245 29.814 50.8571 29.595 50.9446 29.396C51.0322 29.1969 51.1715 29.0249 51.3481 28.898C51.3913 28.8681 51.4378 28.8465 51.4826 28.82L51.6286 28.7652L53.1324 28.3071C53.2319 28.2767 53.3354 28.2611 53.4394 28.2606C53.5451 28.2613 53.6502 28.2769 53.7515 28.3071C53.9888 28.3871 54.1982 28.5335 54.355 28.7288C54.5117 28.9241 54.6093 29.1602 54.6361 29.4092V29.4042Z" fill="url(#paint0_linear_57_3116)"/>
<defs>
<linearGradient id="paint0_linear_57_3116" x1="53.9158" y1="72.7237" x2="23.4743" y2="7.06229" gradientUnits="userSpaceOnUse">
<stop stop-color="#DE3531"/>
<stop offset="0.2" stop-color="#C0262B"/>
<stop offset="0.39" stop-color="#B52328"/>
<stop offset="0.7" stop-color="#A72025"/>
<stop offset="0.99" stop-color="#A31F24"/>
</linearGradient>
</defs>
</svg>
