<svg width="40" height="45" viewBox="0 0 40 45" fill="none" xmlns="http://www.w3.org/2000/svg">
<path d="M36.0291 12.9398C36.0291 12.9398 38.3196 10.5921 37.5871 7.97675C35.0443 10.8566 32.2504 9.6429 34.9503 6.96665C35.8576 6.0672 37.2087 5.97537 38.4524 4.99957C39.529 4.15543 40.651 1.27672 39.5434 0C37.4587 4.74511 35.6031 2.1972 34.3871 2.40519C32.2382 2.77361 31.5112 6.06167 28.6498 6.242C27.4946 6.31502 25.3657 4.28819 27.4802 2.35651C25.5648 2.1618 24.0213 3.57018 22.6149 4.82477C22.6171 4.82477 22.6193 4.82588 22.6215 4.82588C21.079 6.28625 19.6882 7.45455 18.0361 5.8404C17.8602 5.66781 17.6035 5.24518 17.6599 4.68537C17.6566 4.68537 17.6533 4.68648 17.6511 4.68648C17.7706 4.00386 18.3703 3.13317 20.1097 2.23371C16.4726 2.46272 15.6217 4.52495 15.0552 5.15114C6.41002 7.29081 0 15.0961 0 24.4015C0 35.1309 8.52125 43.8688 19.1659 44.2239L15.6859 32.9713L11.3816 34.3022C10.9423 34.4383 10.4455 34.0931 10.2717 33.5322L6.64682 21.8094C6.47309 21.2485 6.68886 20.6831 7.12815 20.547L11.4325 19.2161L10.6347 16.6361C10.5285 16.2909 10.721 15.9258 11.0662 15.8185L16.3011 14.1999C16.6464 14.0937 17.0115 14.2862 17.1188 14.6314L17.9166 17.2114L20.8887 16.292L20.8954 16.3142C24.7704 15.1293 28.5314 13.9787 28.5314 13.9787C28.621 13.9588 28.6432 13.9488 28.7361 13.9488C28.8058 13.9488 28.8755 13.9588 28.9441 13.9787C29.254 14.0705 29.4974 14.377 29.5328 14.71C29.5693 15.0507 29.3912 15.3826 29.1101 15.5165C29.0791 15.5309 29.0459 15.5419 29.0138 15.5541L25.639 16.5808C25.6069 16.5941 25.5538 16.6162 25.5217 16.6295C25.4985 16.6416 25.4752 16.6538 25.4531 16.6693C25.2218 16.8242 25.0879 17.1218 25.1211 17.4238C25.161 17.7922 25.452 18.1252 25.8138 18.1784C25.8835 18.1883 25.9532 18.1883 26.0218 18.1784C26.0561 18.1728 26.0893 18.1629 26.1225 18.1551L34.4557 15.6205C34.5453 15.6006 34.5674 15.5895 34.6604 15.5895C34.7301 15.5895 34.7998 15.5995 34.8684 15.6194C35.1782 15.7112 35.4217 16.0177 35.4571 16.3507C35.4936 16.6914 35.3154 17.0233 35.0344 17.1572C35.0034 17.1716 34.9702 17.1826 34.9381 17.1948L24.9054 20.2472C24.8733 20.2605 24.8202 20.2826 24.7881 20.2959C24.7648 20.3081 24.7416 20.3202 24.7195 20.3357C24.4882 20.4906 24.3543 20.7882 24.3875 21.0903C24.4274 21.4576 24.7184 21.7917 25.0802 21.8448C25.1499 21.8547 25.2196 21.8547 25.2882 21.8448C25.3225 21.8392 25.3557 21.8293 25.39 21.8215L26.8805 21.3679C26.9701 21.348 26.9922 21.3381 27.0852 21.3381C27.1549 21.3381 27.2246 21.348 27.2932 21.3679C27.603 21.4598 27.8465 21.7662 27.8819 22.0992C27.9184 22.44 27.7402 22.7719 27.4592 22.9058C27.4282 22.9213 27.395 22.9312 27.3629 22.9434L23.6849 24.0619C23.3618 24.1604 23.7435 25.2634 24.0268 25.1782L33.2219 22.3814C33.3115 22.3614 33.3337 22.3515 33.4266 22.3515C33.4963 22.3515 33.566 22.3614 33.6346 22.3814C33.9445 22.4732 34.1879 22.7796 34.2233 23.1127C34.2598 23.4534 34.0817 23.7853 33.8006 23.9192C33.7696 23.9336 33.7364 23.9446 33.7043 23.9568L27.5012 25.8442C27.4692 25.8575 27.416 25.8796 27.384 25.8929C27.3607 25.9051 27.3375 25.9172 27.3153 25.9327C27.0841 26.0876 26.9502 26.3863 26.9834 26.6873C27.0232 27.0557 27.3142 27.3887 27.6761 27.4418C27.7458 27.4517 27.8155 27.4517 27.8841 27.4418C27.9184 27.4374 27.9516 27.4263 27.9848 27.4197L29.815 26.8632C29.9046 26.8432 29.9267 26.8333 30.0197 26.8333C30.0894 26.8333 30.1591 26.8432 30.2277 26.8632C30.5375 26.955 30.7809 27.2614 30.8163 27.5945C30.8529 27.9352 30.6747 28.2671 30.3937 28.401C30.3627 28.4154 30.3295 28.4264 30.2974 28.4386C30.2974 28.4386 27.9073 29.1721 25.1366 30.0229L25.1444 30.0494L22.1712 30.9688L25.9754 43.2692C33.929 40.6858 39.6784 33.2158 39.6784 24.4027C39.6784 20.1001 38.3052 16.1194 35.9782 12.8701C35.9926 12.8933 36.0114 12.9166 36.0291 12.9398ZM34.0684 14.0108C34.0374 14.0251 34.0042 14.0362 33.9721 14.0484L32.1176 14.6126C32.0844 14.6203 32.0501 14.6303 32.0169 14.6358C31.9483 14.6458 31.8786 14.6458 31.8089 14.6358C31.4471 14.5827 31.156 14.2497 31.1162 13.8813C31.083 13.5793 31.218 13.2806 31.4482 13.1268C31.4769 13.108 31.5079 13.0925 31.5389 13.0748C31.571 13.0626 31.6031 13.0493 31.6352 13.0372L33.4897 12.4729C33.5793 12.453 33.6014 12.4431 33.6944 12.4431C33.7641 12.4431 33.8338 12.453 33.9024 12.4729C34.2122 12.5648 34.4557 12.8712 34.4911 13.2042C34.5287 13.545 34.3494 13.8769 34.0684 14.0108ZM31.7646 21.5981C31.7336 21.6136 31.7005 21.6235 31.6684 21.6357L29.8139 22.1999C29.7795 22.2077 29.7464 22.2176 29.712 22.2231C29.6434 22.2331 29.5737 22.2331 29.504 22.2231C29.1422 22.1712 28.8512 21.837 28.8114 21.4686C28.7782 21.1666 28.9132 20.8679 29.1433 20.7141C29.1721 20.6953 29.2042 20.6798 29.234 20.6621C29.2661 20.6499 29.2982 20.6378 29.3303 20.6245L31.1848 20.0602C31.2744 20.0403 31.2966 20.0304 31.3895 20.0304C31.4592 20.0304 31.5289 20.0403 31.5975 20.0602C31.9074 20.1521 32.1508 20.4585 32.1862 20.7915C32.2238 21.1334 32.0446 21.4653 31.7646 21.5981ZM33.8305 27.3555C33.7995 27.3699 33.7663 27.3809 33.7342 27.3931L32.7317 27.6985C32.6985 27.7062 32.6642 27.7162 32.6299 27.7217C32.5613 27.7316 32.4916 27.7316 32.4219 27.7217C32.0601 27.6686 31.7691 27.3356 31.7292 26.9672C31.696 26.6651 31.831 26.3664 32.0612 26.2126C32.0899 26.1927 32.1209 26.1783 32.1519 26.1606C32.184 26.1485 32.2161 26.1363 32.2482 26.123L33.2507 25.8177C33.3403 25.7978 33.3624 25.7878 33.4554 25.7878C33.5251 25.7878 33.5948 25.7978 33.6634 25.8177C33.9732 25.9095 34.2167 26.2159 34.2521 26.549C34.2897 26.8897 34.1104 27.2216 33.8305 27.3555ZM36.09 19.6044C36.1265 19.9452 35.9484 20.2771 35.6673 20.411C35.6363 20.4253 35.6031 20.4364 35.571 20.4486L34.5685 20.7539C34.5353 20.7617 34.5021 20.7716 34.4678 20.7772C34.3992 20.7871 34.3295 20.7871 34.2598 20.7772C33.898 20.7252 33.607 20.391 33.5671 20.0226C33.5339 19.7206 33.6689 19.4219 33.8991 19.2681C33.9279 19.2493 33.9599 19.2338 33.9898 19.2172C34.0219 19.205 34.054 19.1918 34.0861 19.1796L35.0886 18.8742C35.1782 18.8543 35.2003 18.8444 35.2933 18.8444C35.363 18.8444 35.4327 18.8543 35.5013 18.8742C35.8111 18.965 36.0546 19.2714 36.09 19.6044Z" fill="#434343"/>
</svg>
